<svg width="50" height="50" viewBox="0 0 50 50" fill="none" xmlns="http://www.w3.org/2000/svg">
<path d="M34.6542 25.6235C36.4006 25.6235 37.8548 27.0592 37.449 28.7579C36.0369 34.6685 30.7201 39.063 24.377 39.063C16.9545 39.063 10.9375 33.0459 10.9375 25.6235C10.9375 19.2803 15.332 13.9635 21.2426 12.5515C22.9412 12.1457 24.377 13.5998 24.377 15.3463V22.4613C24.377 24.2077 25.7927 25.6235 27.5392 25.6235H34.6542Z" fill="black"/>
<path fill-rule="evenodd" clip-rule="evenodd" d="M28.9366 10.9375C27.189 10.9375 25.7723 12.3542 25.7723 14.1018V21.0632C25.7723 22.8108 27.189 24.2275 28.9366 24.2275H35.8981C37.6457 24.2275 39.0624 22.8108 39.0624 21.0632V20.7468C39.0624 18.9992 37.6457 17.5825 35.8981 17.5825H35.5816C33.8341 17.5825 32.4174 16.1658 32.4174 14.4182V14.1018C32.4174 12.3542 31.0006 10.9375 29.2531 10.9375H28.9366Z" fill="black"/>
<circle cx="25" cy="25" r="24" stroke="black" stroke-width="2"/>
</svg>
