<svg width="251" height="251" viewBox="0 0 251 251" fill="none" xmlns="http://www.w3.org/2000/svg">
<mask id="mask0_23_73" style="mask-type:alpha" maskUnits="userSpaceOnUse" x="0" y="0" width="251" height="252">
<path d="M211.655 135.062C225.374 135.062 235.571 146.115 232.706 158.105C220.525 209.094 174.654 247 119.938 247C55.9073 247 4 195.093 4 131.062C4 76.3468 41.9065 30.4751 92.8954 18.2939C104.886 15.4295 115.938 25.6266 115.938 39.3449V102.842C115.938 120.637 130.364 135.062 148.159 135.062H211.655Z" fill="black" stroke="black" stroke-width="8"/>
<path d="M136.396 28.2392C136.396 14.8523 147.248 4 160.635 4H163.459C176.846 4 187.698 14.8523 187.698 28.2392V31.0631C187.698 48.8683 202.132 63.3023 219.937 63.3023H222.761C236.148 63.3023 247 74.1545 247 87.5415V90.3654C247 103.752 236.148 114.605 222.761 114.605H160.635C147.248 114.605 136.396 103.752 136.396 90.3654V28.2392Z" fill="black" stroke="black" stroke-width="8"/>
</mask>
<g mask="url(#mask0_23_73)">
<rect x="-53.3193" y="-43.1633" width="337.327" height="348.571" fill="#4896CA"/>
<circle cx="69.1593" cy="196.836" r="76.7277" fill="#EDD147" stroke="black" stroke-width="3"/>
<path d="M93.0063 162.511C93.0063 164.031 91.7741 165.264 90.2541 165.264C88.7341 165.264 87.502 164.031 87.502 162.511C87.502 160.991 88.7341 159.759 90.2541 159.759C91.7741 159.759 93.0063 160.991 93.0063 162.511Z" fill="black"/>
<path d="M109.521 162.512C109.521 164.032 108.289 165.264 106.769 165.264C105.249 165.264 104.017 164.032 104.017 162.512C104.017 160.992 105.249 159.76 106.769 159.76C108.289 159.76 109.521 160.992 109.521 162.512Z" fill="black"/>
<path fill-rule="evenodd" clip-rule="evenodd" d="M121.794 168.684C122.185 169.383 121.935 170.267 121.236 170.658C102.812 180.963 83.2855 174.955 75.772 170.651C75.0767 170.253 74.8359 169.366 75.2341 168.671C75.6324 167.976 76.5189 167.735 77.2142 168.133C84.2042 172.137 102.596 177.759 119.82 168.126C120.519 167.735 121.403 167.984 121.794 168.684Z" fill="black"/>
</g>
<path d="M211.655 132.562C226.541 132.562 238.476 144.715 235.138 158.686C222.694 210.774 175.837 249.5 119.938 249.5C54.5266 249.5 1.5 196.474 1.5 131.062C1.5 75.1636 40.2261 28.3062 92.3145 15.8624C106.286 12.5247 118.438 24.4594 118.438 39.3449V102.842C118.438 119.256 131.745 132.562 148.159 132.562H211.655Z" stroke="black" stroke-width="3"/>
<path d="M133.896 28.2392C133.896 13.4715 145.867 1.5 160.635 1.5H163.459C178.226 1.5 190.198 13.4715 190.198 28.2392V31.0631C190.198 47.4876 203.512 60.8023 219.937 60.8023H222.761C237.529 60.8023 249.5 72.7738 249.5 87.5415V90.3654C249.5 105.133 237.529 117.105 222.761 117.105H160.635C145.867 117.105 133.896 105.133 133.896 90.3654V28.2392Z" stroke="black" stroke-width="3"/>
</svg>
